<?xml version="1.0" encoding="UTF-8" standalone="yes"?><!-- Created with Inkscape (http://www.inkscape.org/) --><svg xmlns:svg="http://www.w3.org/2000/svg" xmlns="http://www.w3.org/2000/svg" version="1.0" width="680" height="500" id="svg2" style="zoom: 1;"><defs id="defs4"></defs><g id="layer1"><path d="M 438.12826,429.16927 C 375.32987,426.00501 282.92602,437.06422 251.92375,397.77007 C 237.71768,323.00073 197.12299,285.36345 127.4223,284.58694 C 84.626532,201.93866 162.31092,188.98722 215.41306,167.75274 C 218.78636,206.16837 216.71935,246.10015 277.48123,268.52224 C 279.92034,256.63453 284.90432,246.92813 300.84807,246.61583 L 390.66436,246.98094 L 454.19295,197.3264 C 464.45935,213.65423 484.83147,234.57558 484.86193,246.25072 L 581.25015,246.61583 C 588.2694,252.59444 594.22298,268.45864 580.15483,284.22184 C 522.41354,282.46908 417.46802,288.77717 438.12826,429.16927 z" style="fill:#f44336;fill-opacity:1;fill-rule:evenodd;stroke:none;stroke-width:1px;stroke-linecap:butt;stroke-linejoin:miter;stroke-opacity:1" id="path4749"></path><path d="M281.45311,113.13794 L281.71128,79.094411 L319.83363,73.920272 L319.83363,46.902363 L280.93677,53.36735 C283.79727,29.02724 299.44705,11.428004 333.92156,6.3312047 C355.56786,7.8567994 378.26787,9.030436 391.1807,49.520754 C394.96498,65.581097 392.60623,81.830116 382.63201,95.826685 C350.34442,78.127222 326.17913,90.209532 304.13403,110.06585 L281.45311,113.13794  z " id="path5636" style="fill:black;fill-opacity:1;fill-rule:evenodd;stroke:none;stroke-width:1px;stroke-linecap:butt;stroke-linejoin:miter;stroke-opacity:1"></path><path d="M396.453125,104.137939 L396.711273,70.094414 L434.833618,64.920273 L434.833618,37.902359 L395.936768,44.367355 C398.797272,20.027241 414.447052,2.428005 448.92157,-2.668793 C470.567871,-1.1432 493.267883,0.030434 506.180664,40.520752 C509.964966,56.5811 507.606201,72.830116 497.632019,86.826683 C465.344421,69.12722 441.179138,81.209534 419.134033,101.065857 L396.453125,104.137939  z " id="path2" style="fill:black;fill-opacity:1;fill-rule:evenodd;stroke:none;stroke-width:1px;stroke-linecap:butt;stroke-linejoin:miter;stroke-opacity:1"></path><path d="M215.04795,186.7383 L328.59619,100.93818 C343.85852,92.79748 360.69029,91.248459 380.80647,103.49393 C398.00264,119.11558 427.05087,162.39207 450.17678,191.84979 L385.55287,240.22646 L323.48469,153.87868 L225.27094,229.0907 C217.71099,215.89572 215.94199,200.40941 215.04795,186.7383  z " id="path6523" style="fill:black;fill-opacity:1;fill-rule:evenodd;stroke:none;stroke-width:1px;stroke-linecap:butt;stroke-linejoin:miter;stroke-opacity:1"></path><path d="M324.047943,185.738297 L437.596191,99.938179 C452.858521,91.797478 469.690277,90.248459 489.806458,102.493927 C507.002686,118.115578 536.050903,161.392075 559.176758,190.849792 L494.552856,239.226456 L432.48468,152.878677 L334.270935,228.090698 C326.710999,214.895721 324.941986,199.409409 324.047943,185.738297  z " id="path1" style="fill:#f44336;fill-opacity:1;fill-rule:evenodd;stroke:none;stroke-width:1px;stroke-linecap:butt;stroke-linejoin:miter;stroke-opacity:1"></path><path d="M241.70075,414.19989 A83.609474,83.609474 0 1 1 74.481804,414.19989 A83.609474,83.609474 0 1 1 241.70075,414.19989  z " id="path7410" style="opacity:1;fill:none;fill-opacity:1;fill-rule:nonzero;stroke:#212121;stroke-width:34.99968338;stroke-linecap:round;stroke-linejoin:round;stroke-miterlimit:4;stroke-dasharray:none;stroke-dashoffset:0;stroke-opacity:1" transform="matrix(0.974466,0,0,0.974466,-15.37667,-10.08382)"></path><path d="M 241.70075 414.19989 A 83.609474 83.609474 0 1 1 74.481804,414.19989 A 83.609474 83.609474 0 1 1 241.70075 414.19989 z" transform="matrix(0.974466,0,0,0.974466,388.6178,-9.97323)" style="opacity:1;fill:none;fill-opacity:1;fill-rule:nonzero;stroke:#212121;stroke-width:34.99968338;stroke-linecap:round;stroke-linejoin:round;stroke-miterlimit:4;stroke-dasharray:none;stroke-dashoffset:0;stroke-opacity:1" id="path8297"></path></g><polygon points="497,242 560,195 575,241" stroke="#000000" id="polygon1" stroke-width="0" fill="#f44336" transform=""></polygon></svg>
